# xmcd
#
# Track frame offsets: 
#        150
#        14327
#        30215
#        45425
#        63402
#        89062
#        116597
#        141192
#        165570
#
# Disc length: 2263 seconds
#
# Revision: 5
# Processed by: cddbd v1.5.2PL0 Copyright (c) Steve Scherf et al.
# Submitted via: ExactAudioCopy v0.95b4
#
DISCID=6d08d509
DTITLE=LA Style - James Brown Is Dead
DYEAR=1992
DGENRE=Techno
TTITLE0=James Brown Is Dead [7'' Original Mix (Without Rap)]
TTITLE1=James Brown Is Dead [7'' Original Mix (With Rap)]
TTITLE2=James Brown Is Dead [Rock Radio Mix (Vocal by Cris Randell)]
TTITLE3=James Brown Is Dead [Cross Over Radio Mix]
TTITLE4=James Brown Is Dead [Original Mix (Without Rap)]
TTITLE5=James Brown Is Dead [Original Mix (With Rap)]
TTITLE6=James Brown Is Dead [Deadly Mix]
TTITLE7=James Brown Is Dead [Wide Awake ReMix]
TTITLE8=James Brown Is Dead [Take Outs]
EXTD=
EXTT0=
EXTT1=
EXTT2=
EXTT3=
EXTT4=
EXTT5=
EXTT6=
EXTT7=
EXTT8=
PLAYORDER=
